<?xml version="1.0" encoding="UTF-8"?>
<svg xmlns="http://www.w3.org/2000/svg" xmlns:xlink="http://www.w3.org/1999/xlink" width="366px" height="60px" viewBox="0 0 365 60" version="1.1">
<defs>
<clipPath id="clip1">
  <path d="M 0.113281 3.4375 L 126.34375 3.4375 L 126.34375 40.128906 L 0.113281 40.128906 Z M 0.113281 3.4375 "/>
</clipPath>
<clipPath id="clip2">
  <path d="M 142.273438 0.09375 L 194 0.09375 L 194 60 L 142.273438 60 Z M 142.273438 0.09375 "/>
</clipPath>
<clipPath id="clip3">
  <path d="M 167 36 L 195.425781 36 L 195.425781 55 L 167 55 Z M 167 36 "/>
</clipPath>
<clipPath id="clip4">
  <path d="M 211.355469 10.796875 L 364.800781 10.796875 L 364.800781 49.386719 L 211.355469 49.386719 Z M 211.355469 10.796875 "/>
</clipPath>
</defs>
<g id="surface1">
<g clip-path="url(#clip1)" clip-rule="nonzero">
<path style=" stroke:none;fill-rule:nonzero;fill:rgb(31.372549%,62.745098%,37.647059%);fill-opacity:1;" d="M 30.390625 30.648438 C 30.390625 31.578125 30.238281 32.453125 29.933594 33.265625 C 29.636719 34.070312 29.21875 34.804688 28.679688 35.46875 C 28.152344 36.136719 27.53125 36.730469 26.820312 37.25 C 26.113281 37.769531 25.355469 38.203125 24.535156 38.550781 C 23.71875 38.902344 22.878906 39.164062 22.011719 39.339844 C 21.144531 39.515625 20.292969 39.601562 19.457031 39.601562 L 0.113281 39.601562 L 0.113281 6.636719 L 17.792969 6.636719 C 18.566406 6.636719 19.378906 6.695312 20.234375 6.816406 C 21.089844 6.925781 21.921875 7.105469 22.730469 7.347656 C 23.546875 7.59375 24.324219 7.914062 25.0625 8.316406 C 25.804688 8.710938 26.453125 9.195312 27.007812 9.769531 C 27.5625 10.335938 28 10.996094 28.324219 11.746094 C 28.65625 12.492188 28.820312 13.34375 28.820312 14.304688 C 28.820312 15.226562 28.636719 16.054688 28.269531 16.800781 C 27.90625 17.550781 27.417969 18.21875 26.800781 18.808594 C 26.183594 19.394531 25.476562 19.914062 24.675781 20.363281 C 23.878906 20.8125 23.039062 21.207031 22.152344 21.542969 C 23.261719 21.851562 24.316406 22.253906 25.3125 22.753906 C 26.3125 23.261719 27.1875 23.878906 27.941406 24.609375 C 28.695312 25.339844 29.292969 26.207031 29.726562 27.207031 C 30.171875 28.207031 30.390625 29.355469 30.390625 30.648438 Z M 19.617188 15.113281 C 19.617188 13.25 19.125 11.890625 18.140625 11.035156 C 17.160156 10.179688 15.761719 9.75 13.949219 9.75 L 9.179688 9.75 L 9.179688 20.449219 L 13.171875 20.449219 C 13.996094 20.449219 14.796875 20.34375 15.574219 20.136719 C 16.347656 19.933594 17.039062 19.609375 17.644531 19.171875 C 18.242188 18.734375 18.722656 18.183594 19.082031 17.511719 C 19.4375 16.84375 19.617188 16.042969 19.617188 15.113281 Z M 21.214844 30.078125 C 21.214844 29.175781 21.101562 28.335938 20.871094 27.554688 C 20.644531 26.765625 20.296875 26.085938 19.824219 25.511719 C 19.347656 24.941406 18.757812 24.492188 18.054688 24.160156 C 17.34375 23.835938 16.507812 23.671875 15.546875 23.671875 L 9.179688 23.671875 L 9.179688 36.394531 L 14.753906 36.394531 C 15.683594 36.394531 16.542969 36.242188 17.335938 35.9375 C 18.125 35.636719 18.808594 35.210938 19.382812 34.660156 C 19.964844 34.109375 20.414062 33.445312 20.738281 32.664062 C 21.058594 31.890625 21.214844 31.027344 21.214844 30.078125 Z M 62.871094 26.324219 C 62.871094 27.703125 62.683594 28.992188 62.316406 30.199219 C 61.949219 31.398438 61.445312 32.511719 60.800781 33.535156 C 60.152344 34.5625 59.371094 35.480469 58.453125 36.292969 C 57.542969 37.113281 56.542969 37.800781 55.453125 38.363281 C 54.367188 38.925781 53.203125 39.363281 51.960938 39.667969 C 50.722656 39.972656 49.445312 40.128906 48.136719 40.128906 C 46.828125 40.128906 45.554688 39.972656 44.320312 39.667969 C 43.09375 39.363281 41.933594 38.925781 40.839844 38.363281 C 39.75 37.800781 38.75 37.113281 37.839844 36.292969 C 36.921875 35.480469 36.140625 34.5625 35.5 33.535156 C 34.851562 32.511719 34.34375 31.390625 33.976562 30.179688 C 33.613281 28.96875 33.433594 27.683594 33.433594 26.324219 C 33.433594 24.96875 33.613281 23.683594 33.976562 22.472656 C 34.34375 21.261719 34.851562 20.140625 35.5 19.117188 C 36.140625 18.089844 36.921875 17.171875 37.839844 16.359375 C 38.75 15.539062 39.75 14.851562 40.839844 14.289062 C 41.933594 13.71875 43.09375 13.285156 44.320312 12.984375 C 45.554688 12.679688 46.828125 12.523438 48.136719 12.523438 C 49.445312 12.523438 50.722656 12.679688 51.960938 12.984375 C 53.203125 13.285156 54.367188 13.71875 55.453125 14.289062 C 56.542969 14.851562 57.542969 15.539062 58.453125 16.359375 C 59.371094 17.171875 60.152344 18.089844 60.800781 19.117188 C 61.445312 20.140625 61.949219 21.261719 62.316406 22.472656 C 62.683594 23.683594 62.871094 24.96875 62.871094 26.324219 Z M 55.011719 26.324219 C 55.011719 25.59375 54.96875 24.820312 54.882812 24 C 54.800781 23.1875 54.660156 22.386719 54.460938 21.601562 C 54.265625 20.8125 54 20.058594 53.65625 19.332031 C 53.3125 18.605469 52.886719 17.972656 52.382812 17.429688 C 51.882812 16.890625 51.28125 16.457031 50.578125 16.125 C 49.878906 15.800781 49.066406 15.636719 48.136719 15.636719 C 47.25 15.636719 46.46875 15.804688 45.789062 16.144531 C 45.101562 16.476562 44.503906 16.917969 43.992188 17.476562 C 43.480469 18.03125 43.054688 18.679688 42.710938 19.417969 C 42.367188 20.148438 42.089844 20.90625 41.878906 21.695312 C 41.667969 22.476562 41.515625 23.269531 41.421875 24.074219 C 41.332031 24.875 41.289062 25.625 41.289062 26.324219 C 41.289062 27.027344 41.332031 27.777344 41.421875 28.578125 C 41.515625 29.382812 41.667969 30.183594 41.878906 30.976562 C 42.089844 31.769531 42.367188 32.53125 42.710938 33.253906 C 43.054688 33.972656 43.480469 34.613281 43.992188 35.175781 C 44.503906 35.734375 45.101562 36.175781 45.789062 36.507812 C 46.46875 36.847656 47.25 37.015625 48.136719 37.015625 C 49.046875 37.015625 49.855469 36.851562 50.558594 36.527344 C 51.257812 36.195312 51.863281 35.753906 52.375 35.203125 C 52.886719 34.65625 53.304688 34.023438 53.636719 33.3125 C 53.972656 32.59375 54.246094 31.835938 54.449219 31.042969 C 54.65625 30.25 54.800781 29.449219 54.882812 28.640625 C 54.96875 27.828125 55.011719 27.058594 55.011719 26.324219 Z M 95.589844 26.324219 C 95.589844 27.703125 95.40625 28.992188 95.039062 30.199219 C 94.675781 31.398438 94.171875 32.511719 93.523438 33.535156 C 92.875 34.5625 92.09375 35.480469 91.183594 36.292969 C 90.265625 37.113281 89.265625 37.800781 88.179688 38.363281 C 87.089844 38.925781 85.921875 39.363281 84.683594 39.667969 C 83.441406 39.972656 82.167969 40.128906 80.855469 40.128906 C 79.546875 40.128906 78.277344 39.972656 77.050781 39.667969 C 75.816406 39.363281 74.652344 38.925781 73.5625 38.363281 C 72.476562 37.800781 71.476562 37.113281 70.558594 36.292969 C 69.648438 35.480469 68.867188 34.5625 68.21875 33.535156 C 67.570312 32.511719 67.066406 31.390625 66.703125 30.179688 C 66.335938 28.96875 66.152344 27.683594 66.152344 26.324219 C 66.152344 24.96875 66.335938 23.683594 66.703125 22.472656 C 67.066406 21.261719 67.570312 20.140625 68.21875 19.117188 C 68.867188 18.089844 69.648438 17.171875 70.558594 16.359375 C 71.476562 15.539062 72.476562 14.851562 73.5625 14.289062 C 74.652344 13.71875 75.816406 13.285156 77.050781 12.984375 C 78.277344 12.679688 79.546875 12.523438 80.855469 12.523438 C 82.167969 12.523438 83.441406 12.679688 84.683594 12.984375 C 85.921875 13.285156 87.089844 13.71875 88.179688 14.289062 C 89.265625 14.851562 90.265625 15.539062 91.183594 16.359375 C 92.09375 17.171875 92.875 18.089844 93.523438 19.117188 C 94.171875 20.140625 94.675781 21.261719 95.039062 22.472656 C 95.40625 23.683594 95.589844 24.96875 95.589844 26.324219 Z M 87.730469 26.324219 C 87.730469 25.59375 87.691406 24.820312 87.609375 24 C 87.523438 23.1875 87.382812 22.386719 87.1875 21.601562 C 86.988281 20.8125 86.71875 20.058594 86.375 19.332031 C 86.03125 18.605469 85.609375 17.972656 85.101562 17.429688 C 84.605469 16.890625 84.003906 16.457031 83.296875 16.125 C 82.601562 15.800781 81.785156 15.636719 80.855469 15.636719 C 79.976562 15.636719 79.195312 15.804688 78.507812 16.144531 C 77.824219 16.476562 77.222656 16.917969 76.714844 17.476562 C 76.203125 18.03125 75.773438 18.679688 75.429688 19.417969 C 75.089844 20.148438 74.8125 20.90625 74.597656 21.695312 C 74.386719 22.476562 74.234375 23.269531 74.140625 24.074219 C 74.054688 24.875 74.007812 25.625 74.007812 26.324219 C 74.007812 27.027344 74.054688 27.777344 74.140625 28.578125 C 74.234375 29.382812 74.386719 30.183594 74.597656 30.976562 C 74.8125 31.769531 75.089844 32.53125 75.429688 33.253906 C 75.773438 33.972656 76.203125 34.613281 76.714844 35.175781 C 77.222656 35.734375 77.824219 36.175781 78.507812 36.507812 C 79.195312 36.847656 79.976562 37.015625 80.855469 37.015625 C 81.773438 37.015625 82.582031 36.851562 83.28125 36.527344 C 83.976562 36.195312 84.582031 35.753906 85.09375 35.203125 C 85.605469 34.65625 86.03125 34.023438 86.367188 33.3125 C 86.695312 32.59375 86.964844 31.835938 87.171875 31.042969 C 87.375 30.25 87.523438 29.449219 87.609375 28.640625 C 87.691406 27.828125 87.730469 27.058594 87.730469 26.324219 Z M 108.171875 30.722656 L 108.171875 39.601562 L 100.453125 39.601562 L 100.453125 3.441406 L 108.171875 3.441406 L 108.171875 27.171875 C 109.4375 26.257812 110.679688 25.25 111.902344 24.152344 C 113.128906 23.050781 114.300781 21.894531 115.410156 20.683594 C 116.519531 19.46875 117.550781 18.230469 118.507812 16.960938 C 119.453125 15.695312 120.285156 14.429688 121.003906 13.164062 L 126.261719 13.164062 C 125.195312 14.960938 123.929688 16.757812 122.460938 18.554688 C 121.003906 20.347656 119.414062 22.058594 117.691406 23.691406 L 126.34375 39.601562 L 117.832031 39.601562 L 111.6875 28.566406 C 110.546875 29.347656 109.375 30.066406 108.171875 30.722656 Z M 108.171875 30.722656 "/>
</g>
<g clip-path="url(#clip2)" clip-rule="nonzero">
<path style=" stroke:none;fill-rule:nonzero;fill:rgb(31.372549%,62.745098%,37.647059%);fill-opacity:1;" d="M 177.648438 44.234375 C 180.125 42.28125 185.222656 37.046875 186.992188 31.089844 C 182.960938 26.117188 165.988281 4.898438 162.070312 0 C 161.671875 4.648438 157.59375 14.4375 150.519531 17.707031 C 147.273438 19.296875 144.03125 20.285156 142.800781 20.636719 L 167 50.011719 C 169.734375 49.128906 175.136719 46.210938 177.648438 44.234375 M 193.996094 46.078125 C 189.96875 48.425781 185.707031 50.601562 181.191406 52.242188 C 175.84375 54.1875 169.394531 56.390625 167.328125 57 L 167.328125 60.183594 L 193.984375 50.574219 Z M 142.273438 21.566406 L 142.273438 30.398438 L 166.308594 60.105469 L 166.332031 50.765625 Z M 142.273438 21.566406 "/>
</g>
<path style=" stroke:none;fill-rule:nonzero;fill:rgb(31.372549%,62.745098%,37.647059%);fill-opacity:1;" d="M 192.949219 43.019531 C 189.839844 45.460938 185.898438 47.933594 181.628906 50.070312 C 177.589844 52.101562 168.699219 54.832031 167.328125 55.25 L 167.328125 55.957031 C 169.609375 55.28125 175.402344 53.539062 180.480469 51.605469 C 186.117188 49.460938 194.179688 44.386719 194.179688 44.386719 Z M 188.09375 30.859375 L 188.023438 31.109375 C 186.257812 37.40625 181.054688 42.816406 178.261719 45.023438 C 175.644531 47.082031 170.203125 50.019531 167.328125 50.957031 L 167.328125 52.300781 C 171.371094 51.039062 177.023438 48.355469 180.160156 46.144531 C 185.546875 42.339844 190.808594 37.0625 194.046875 32.234375 L 194.074219 32.257812 C 190.429688 28.132812 170.171875 4.890625 168.859375 3.21875 C 168.414062 4.0625 168.011719 4.625 167.359375 5.011719 C 174.066406 13.398438 185.070312 27.140625 187.929688 30.660156 Z M 188.09375 30.859375 "/>
<g clip-path="url(#clip3)" clip-rule="nonzero">
<path style=" stroke:none;fill-rule:nonzero;fill:rgb(31.372549%,62.745098%,37.647059%);fill-opacity:1;" d="M 192.085938 36.503906 C 192.085938 36.503906 184.910156 44.015625 180.734375 46.960938 C 177.207031 49.449219 171.753906 51.890625 167.328125 53.273438 L 167.328125 54.203125 C 167.757812 54.070312 168.464844 53.851562 169.351562 53.570312 C 172.613281 52.527344 178.277344 50.636719 181.183594 49.179688 C 186.945312 46.292969 192.097656 42.800781 195.324219 39.628906 L 195.425781 39.527344 Z M 192.085938 36.503906 "/>
</g>
<g clip-path="url(#clip4)" clip-rule="nonzero">
<path style=" stroke:none;fill-rule:nonzero;fill:rgb(31.372549%,62.745098%,37.647059%);fill-opacity:1;" d="M 220.4375 29.382812 L 220.4375 43.753906 L 211.375 43.753906 L 211.375 10.796875 L 220.4375 10.796875 L 220.4375 25.195312 L 232.441406 25.195312 L 232.441406 10.796875 L 241.511719 10.796875 L 241.511719 43.753906 L 232.441406 43.753906 L 232.441406 29.382812 Z M 274.523438 17.320312 L 274.523438 43.753906 L 266.800781 43.753906 L 266.800781 40.59375 C 265.890625 41.84375 264.792969 42.773438 263.507812 43.378906 C 262.21875 43.976562 260.804688 44.277344 259.273438 44.277344 C 257.265625 44.277344 255.46875 43.917969 253.886719 43.199219 C 252.300781 42.488281 250.960938 41.511719 249.863281 40.265625 C 248.765625 39.023438 247.929688 37.5625 247.347656 35.878906 C 246.773438 34.207031 246.488281 32.40625 246.488281 30.480469 C 246.488281 28.554688 246.773438 26.757812 247.347656 25.082031 C 247.929688 23.402344 248.765625 21.9375 249.863281 20.695312 C 250.960938 19.453125 252.300781 18.472656 253.886719 17.761719 C 255.46875 17.042969 257.265625 16.683594 259.273438 16.683594 C 260.289062 16.683594 261.257812 16.835938 262.179688 17.144531 C 263.101562 17.441406 263.949219 17.875 264.714844 18.4375 C 265.480469 18.992188 266.15625 19.660156 266.742188 20.441406 C 267.328125 21.230469 267.789062 22.105469 268.128906 23.066406 L 271.550781 17.320312 Z M 266.761719 30.480469 C 266.761719 29.792969 266.726562 29.070312 266.660156 28.304688 C 266.589844 27.542969 266.472656 26.789062 266.304688 26.039062 C 266.136719 25.292969 265.902344 24.582031 265.601562 23.902344 C 265.308594 23.21875 264.929688 22.617188 264.460938 22.09375 C 264 21.566406 263.441406 21.152344 262.789062 20.84375 C 262.132812 20.539062 261.371094 20.386719 260.507812 20.386719 C 259.632812 20.386719 258.878906 20.542969 258.242188 20.855469 C 257.601562 21.167969 257.050781 21.589844 256.597656 22.121094 C 256.140625 22.644531 255.765625 23.25 255.464844 23.9375 C 255.171875 24.625 254.941406 25.339844 254.773438 26.085938 C 254.605469 26.835938 254.488281 27.585938 254.417969 28.34375 C 254.351562 29.101562 254.316406 29.8125 254.316406 30.480469 C 254.316406 31.148438 254.351562 31.863281 254.417969 32.628906 C 254.488281 33.394531 254.605469 34.152344 254.773438 34.894531 C 254.941406 35.644531 255.171875 36.363281 255.464844 37.050781 C 255.765625 37.738281 256.140625 38.34375 256.597656 38.871094 C 257.050781 39.394531 257.601562 39.8125 258.242188 40.125 C 258.878906 40.4375 259.632812 40.59375 260.507812 40.59375 C 261.296875 40.59375 262 40.433594 262.609375 40.105469 C 263.226562 39.777344 263.769531 39.335938 264.238281 38.785156 C 264.699219 38.234375 265.089844 37.609375 265.414062 36.910156 C 265.734375 36.210938 265.992188 35.484375 266.191406 34.738281 C 266.386719 33.988281 266.527344 33.242188 266.621094 32.503906 C 266.714844 31.769531 266.761719 31.09375 266.761719 30.480469 Z M 304.90625 17.320312 L 294.515625 43.753906 L 287.578125 43.753906 L 277.984375 17.320312 L 285.707031 17.320312 L 292.738281 38.375 L 299.566406 17.320312 Z M 313.984375 31.210938 C 314.933594 31.425781 315.878906 31.59375 316.820312 31.71875 C 317.761719 31.835938 318.710938 31.894531 319.671875 31.894531 C 320.675781 31.894531 321.609375 31.800781 322.46875 31.613281 C 323.328125 31.421875 324.078125 31.097656 324.710938 30.648438 C 325.34375 30.199219 325.835938 29.601562 326.199219 28.859375 C 326.566406 28.109375 326.75 27.179688 326.75 26.066406 C 326.75 25.167969 326.628906 24.339844 326.386719 23.589844 C 326.144531 22.84375 325.78125 22.203125 325.300781 21.671875 C 324.820312 21.140625 324.230469 20.722656 323.535156 20.421875 C 322.835938 20.125 322.023438 19.972656 321.09375 19.972656 C 320.21875 19.972656 319.4375 20.136719 318.746094 20.460938 C 318.054688 20.78125 317.445312 21.210938 316.921875 21.753906 C 316.398438 22.292969 315.949219 22.917969 315.574219 23.636719 C 315.203125 24.355469 314.894531 25.105469 314.648438 25.878906 C 314.40625 26.660156 314.234375 27.445312 314.125 28.242188 C 314.019531 29.035156 313.96875 29.78125 313.96875 30.480469 C 313.96875 30.605469 313.96875 30.726562 313.96875 30.847656 C 313.96875 30.972656 313.972656 31.09375 313.984375 31.210938 Z M 333.007812 25.992188 C 333.007812 27.078125 332.832031 28.042969 332.484375 28.886719 C 332.132812 29.738281 331.65625 30.480469 331.050781 31.117188 C 330.453125 31.761719 329.757812 32.304688 328.96875 32.75 C 328.175781 33.1875 327.332031 33.550781 326.433594 33.835938 C 325.535156 34.117188 324.609375 34.316406 323.65625 34.4375 C 322.707031 34.5625 321.785156 34.625 320.886719 34.625 C 319.746094 34.625 318.617188 34.542969 317.503906 34.378906 C 316.394531 34.222656 315.296875 33.96875 314.21875 33.613281 C 314.386719 34.625 314.652344 35.582031 315.015625 36.488281 C 315.382812 37.394531 315.867188 38.1875 316.472656 38.871094 C 317.085938 39.542969 317.835938 40.082031 318.726562 40.480469 C 319.617188 40.875 320.671875 41.074219 321.886719 41.074219 C 322.691406 41.074219 323.460938 40.949219 324.199219 40.707031 C 324.925781 40.464844 325.59375 40.121094 326.199219 39.675781 C 326.808594 39.238281 327.347656 38.714844 327.816406 38.101562 C 328.277344 37.488281 328.652344 36.8125 328.9375 36.066406 L 332.277344 37.304688 C 331.773438 38.503906 331.082031 39.542969 330.210938 40.425781 C 329.339844 41.300781 328.351562 42.027344 327.246094 42.601562 C 326.144531 43.167969 324.972656 43.589844 323.730469 43.867188 C 322.488281 44.140625 321.257812 44.277344 320.035156 44.277344 C 318.027344 44.277344 316.175781 43.941406 314.472656 43.265625 C 312.765625 42.585938 311.292969 41.636719 310.058594 40.417969 C 308.832031 39.191406 307.863281 37.734375 307.160156 36.039062 C 306.460938 34.347656 306.113281 32.492188 306.113281 30.480469 C 306.113281 28.46875 306.460938 26.617188 307.160156 24.921875 C 307.863281 23.230469 308.832031 21.769531 310.058594 20.546875 C 311.292969 19.328125 312.765625 18.378906 314.472656 17.695312 C 316.175781 17.019531 318.027344 16.683594 320.035156 16.683594 C 321.015625 16.683594 322.011719 16.753906 323.027344 16.890625 C 324.050781 17.027344 325.042969 17.242188 326.003906 17.535156 C 326.957031 17.835938 327.859375 18.222656 328.714844 18.699219 C 329.570312 19.167969 330.3125 19.75 330.941406 20.441406 C 331.570312 21.140625 332.070312 21.949219 332.445312 22.859375 C 332.820312 23.773438 333.007812 24.816406 333.007812 25.992188 Z M 364.78125 28.605469 C 364.78125 30.386719 364.566406 32.246094 364.136719 34.183594 C 363.699219 36.125 363.097656 38.027344 362.324219 39.882812 C 361.542969 41.746094 360.613281 43.496094 359.535156 45.140625 C 358.453125 46.777344 357.265625 48.191406 355.972656 49.386719 L 353.074219 47.800781 C 353.484375 47.039062 353.871094 46.1875 354.234375 45.242188 C 354.601562 44.292969 354.933594 43.289062 355.226562 42.234375 C 355.523438 41.171875 355.792969 40.074219 356.03125 38.945312 C 356.265625 37.820312 356.464844 36.703125 356.617188 35.597656 C 356.78125 34.492188 356.902344 33.414062 356.984375 32.363281 C 357.070312 31.320312 357.113281 30.351562 357.113281 29.449219 C 357.113281 28.855469 357.09375 28.21875 357.050781 27.539062 C 357 26.863281 356.902344 26.183594 356.757812 25.503906 C 356.617188 24.824219 356.421875 24.167969 356.179688 23.542969 C 355.9375 22.917969 355.613281 22.371094 355.207031 21.894531 C 354.800781 21.425781 354.316406 21.046875 353.75 20.75 C 353.175781 20.464844 352.5 20.320312 351.726562 20.320312 C 350.96875 20.320312 350.289062 20.492188 349.691406 20.835938 C 349.097656 21.179688 348.574219 21.628906 348.117188 22.1875 C 347.664062 22.742188 347.269531 23.378906 346.941406 24.097656 C 346.617188 24.816406 346.351562 25.550781 346.144531 26.300781 C 345.941406 27.054688 345.789062 27.800781 345.695312 28.53125 C 345.609375 29.269531 345.566406 29.925781 345.566406 30.5 L 345.566406 43.753906 L 337.824219 43.753906 L 337.824219 17.320312 L 340.789062 17.320312 L 344.332031 23.480469 C 344.753906 22.453125 345.289062 21.523438 345.929688 20.6875 C 346.566406 19.847656 347.289062 19.132812 348.101562 18.539062 C 348.902344 17.941406 349.796875 17.480469 350.773438 17.160156 C 351.757812 16.84375 352.824219 16.683594 353.964844 16.683594 C 355.789062 16.683594 357.378906 16.980469 358.730469 17.574219 C 360.089844 18.167969 361.21875 18.996094 362.117188 20.058594 C 363.015625 21.121094 363.683594 22.378906 364.117188 23.835938 C 364.5625 25.292969 364.78125 26.882812 364.78125 28.605469 Z M 364.78125 28.605469 "/>
</g>
</g>
</svg>
