<svg xmlns="http://www.w3.org/2000/svg" version="1.1" xmlns:xlink="http://www.w3.org/1999/xlink" xmlns:svgjs="http://svgjs.dev/svgjs" width="2000" height="191" viewBox="0 0 2000 191"><g transform="matrix(1,0,0,1,-1.2121212121213603,0.6487238495752337)"><svg viewBox="0 0 396 38" data-background-color="#ececea" preserveAspectRatio="xMidYMid meet" height="191" width="2000" xmlns="http://www.w3.org/2000/svg" xmlns:xlink="http://www.w3.org/1999/xlink"><g id="tight-bounds" transform="matrix(1,0,0,1,0.24000000000003752,-0.12906547792596257)"><svg viewBox="0 0 395.5199999999999 38.25813095585193" height="38.25813095585193" width="395.5199999999999"><g><svg viewBox="0 0 550.0822942334812 53.208739" height="38.25813095585193" width="395.5199999999999"><g><svg viewBox="0 0 550.0822942334812 53.208739" height="53.208739" width="550.0822942334812"><g id="textblocktransform"><svg viewBox="0 0 550.0822942334812 53.208739" height="53.208739" width="550.0822942334812" id="textblock"><g><svg viewBox="0 0 550.0822942334812 53.208739" height="53.208739" width="550.0822942334812"><g><svg><g></g><g></g></svg></g><g><svg><g></g><g><svg></svg></g></svg></g><g id="text-0"><svg viewBox="0 0 550.0822942334812 53.208739" height="53.208739" width="550.0822942334812"><g transform="matrix(1,0,0,1,0,8.154369499999998)"><svg width="207.9" viewBox="1.75 -36.45 207.88 36.900000000000006" height="36.900000000000006" data-palette-color="#009b7d"><path d="M39.4 0L39.4 0Q37.8 0 36.33-0.9 34.85-1.8 33.95-3.75 33.05-5.7 33.05-8.75L33.05-8.75Q33.05-11.25 33.65-14.38 34.25-17.5 35.23-20.65 36.2-23.8 37.35-26.35L37.35-26.35Q33.9-24.05 31.3-20 28.7-15.95 26.8-10.6L26.8-10.6Q27.2-9 27.45-7.6 27.7-6.2 27.7-5.05L27.7-5.05Q27.7-2.85 26.65-1.6 25.6-0.35 23-0.35L23-0.35Q20.7-0.35 19.63-1.38 18.55-2.4 18.55-4.25L18.55-4.25Q18.55-5.45 18.98-7 19.4-8.55 20.2-10.35L20.2-10.35Q19.3-13 18-16.32 16.7-19.65 14.35-23.6L14.35-23.6Q13.65-20.65 12.93-17.73 12.2-14.8 11.73-12.33 11.25-9.85 11.25-8.15L11.25-8.15Q11.25-5.4 12.75-5.4L12.75-5.4 12.85-5.3Q12.85-3.65 12.03-2.48 11.2-1.3 9.93-0.68 8.65-0.05 7.25-0.05L7.25-0.05Q5.9-0.05 4.63-0.7 3.35-1.35 2.55-2.73 1.75-4.1 1.75-6.25L1.75-6.25Q1.75-8.3 2.48-10.73 3.2-13.15 4.3-15.68 5.4-18.2 6.55-20.63 7.7-23.05 8.63-25.18 9.55-27.3 9.85-28.9L9.85-28.9Q8.85-29.6 7.7-29.6L7.7-29.6Q6.75-29.6 5.78-28.98 4.8-28.35 3.95-26.9L3.95-26.9 3.6-27.05Q3.65-29.6 4.7-31.73 5.75-33.85 7.48-35.13 9.2-36.4 11.25-36.4L11.25-36.4Q13.6-36.4 16.1-34.35 18.6-32.3 20.73-27.6 22.85-22.9 24.15-14.9L24.15-14.9Q26.05-21.05 28.25-25.2 30.45-29.35 32.77-31.8 35.1-34.25 37.38-35.33 39.65-36.4 41.7-36.4L41.7-36.4Q44.25-36.4 46.28-35.15 48.3-33.9 49.48-32 50.65-30.1 50.65-28.2L50.65-28.2Q49.4-28.55 48.18-28.7 46.95-28.85 45.8-28.85L45.8-28.85Q44.65-28.85 43.6-28.7L43.6-28.7Q43.15-26.4 42.65-23.58 42.15-20.75 41.78-17.9 41.4-15.05 41.4-12.65L41.4-12.65Q41.4-10.2 41.9-8.65 42.4-7.1 43.65-7.1L43.65-7.1Q44.45-7.1 45.28-7.8 46.1-8.5 46.5-9.95L46.5-9.95 46.85-9.8Q46.85-6.5 45.75-4.33 44.65-2.15 42.93-1.07 41.2 0 39.4 0ZM69.5 0.25L69.5 0.25Q67.75 0.25 66.45-0.9 65.15-2.05 65.15-4.65L65.15-4.65Q65.15-4.9 65.15-5.15 65.15-5.4 65.2-5.65L65.2-5.65Q63.7-2.65 61.82-1.23 59.95 0.2 58.05 0.2L58.05 0.2Q56.3 0.2 54.75-1.03 53.2-2.25 52.25-4.65 51.3-7.05 51.3-10.45L51.3-10.45Q51.3-13.95 52.27-16.7 53.25-19.45 54.85-21.35 56.45-23.25 58.35-24.23 60.25-25.2 62.05-25.2L62.05-25.2Q64.05-25.2 65.65-23.98 67.25-22.75 67.85-20.1L67.85-20.1Q68-20.95 68.07-21.65 68.15-22.35 68.15-22.6L68.15-22.6Q68.2-23.95 69.52-24.6 70.85-25.25 72.45-25.25L72.45-25.25Q73.85-25.25 75.1-24.7 76.35-24.15 76.8-22.85L76.8-22.85 76.9-22.55Q76.3-21.2 75.7-19.3 75.1-17.4 74.6-15.33 74.1-13.25 73.8-11.28 73.5-9.3 73.5-7.8L73.5-7.8Q73.5-6.15 73.85-5.53 74.2-4.9 74.7-4.9L74.7-4.9Q75.55-4.9 76.25-6.1L76.25-6.1 76.65-5.9Q76.65-4.2 75.55-2.8 74.45-1.4 72.8-0.58 71.15 0.25 69.5 0.25ZM61.35-6.1L61.35-6.1Q62.65-6.1 64.22-8.43 65.8-10.75 66.95-15.1L66.95-15.1Q67.05-15.55 67.15-15.98 67.25-16.4 67.3-16.8L67.3-16.8Q66.5-18.65 65.62-19.43 64.75-20.2 63.9-20.2L63.9-20.2Q62.65-20.2 61.57-18.88 60.5-17.55 59.82-15.55 59.15-13.55 59.15-11.55L59.15-11.55Q59.15-8.8 59.77-7.45 60.4-6.1 61.35-6.1ZM86.55 0.2L86.55 0.2Q83.95 0.2 82.32-1.33 80.7-2.85 80.7-6.05L80.7-6.05Q80.7-7.65 81.07-9.43 81.45-11.2 81.92-12.93 82.4-14.65 82.75-16.05 83.09-17.45 83.09-18.3L83.09-18.3Q83.09-19.15 82.75-19.53 82.4-19.9 81.9-19.9L81.9-19.9Q81.4-19.9 80.9-19.58 80.4-19.25 80.05-18.6L80.05-18.6 79.65-18.75Q79.75-20.8 80.8-22.25 81.84-23.7 83.42-24.45 85-25.2 86.59-25.2L86.59-25.2Q87.9-25.2 89.09-24.68 90.3-24.15 91.02-23.08 91.75-22 91.7-20.35L91.7-20.35Q91.65-19.25 91.3-17.65 90.95-16.05 90.47-14.23 90-12.4 89.65-10.7 89.3-9 89.3-7.7L89.3-7.7Q89.3-6.6 89.62-5.95 89.95-5.3 90.75-5.3L90.75-5.3Q91.59-5.3 93-6.2 94.4-7.1 95.8-8.8L95.8-8.8Q95.5-11.6 95.5-13.75L95.5-13.75Q95.5-19.25 97.12-21.7 98.75-24.15 101.2-24.15L101.2-24.15Q103-24.15 103.65-22.95 104.3-21.75 104.3-19.75L104.3-19.75Q104.3-16.8 103.3-14.2 102.3-11.6 100.95-10.05L100.95-10.05Q101.05-7.8 101.87-6.55 102.7-5.3 103.84-5.3L103.84-5.3Q105-5.3 106.22-6.6 107.45-7.9 108.34-10.6 109.25-13.3 109.4-17.45L109.4-17.45Q109.45-20.8 108.95-22.35L108.95-22.35 108.95-22.6Q109.65-23.75 111.17-24.58 112.7-25.4 114.25-25.4L114.25-25.4Q115.34-25.4 116.27-24.78 117.2-24.15 117.75-22.48 118.3-20.8 118.15-17.65L118.15-17.65Q118-13.25 116.7-9.93 115.4-6.6 113.37-4.35 111.34-2.1 109-0.95 106.65 0.2 104.34 0.2L104.34 0.2Q101.75 0.2 99.59-1.23 97.45-2.65 96.34-5.25L96.34-5.25Q94.09-2.9 91.72-1.35 89.34 0.2 86.55 0.2ZM126.29 0.2L126.29 0.2Q124.49 0.2 123.09-1.28 121.69-2.75 121.69-5.45L121.69-5.45Q121.69-6.75 121.99-8.4 122.29-10.05 122.69-11.78 123.09-13.5 123.39-15.03 123.69-16.55 123.69-17.55L123.69-17.55Q123.69-18.6 123.32-19.23 122.94-19.85 122.34-19.85L122.34-19.85Q121.39-19.85 120.39-18.55L120.39-18.55 120.09-18.75Q120.04-19.55 120.44-20.65 120.84-21.75 121.69-22.78 122.54-23.8 123.87-24.5 125.19-25.2 126.99-25.2L126.99-25.2Q129.64-25.2 130.84-23.68 132.04-22.15 132.04-20L132.04-20Q132.04-19.65 132.02-19.28 131.99-18.9 131.94-18.55L131.94-18.55Q133.74-21.8 135.72-23.53 137.69-25.25 139.39-25.25L139.39-25.25Q140.99-25.25 141.74-24 142.49-22.75 142.49-21L142.49-21Q142.49-19.4 141.87-17.75 141.24-16.1 140.02-15.03 138.79-13.95 137.04-14L137.04-14 136.84-14.1Q136.79-15.4 135.99-16.15 135.19-16.9 134.19-16.9L134.19-16.9Q132.84-16.9 131.67-15.55 130.49-14.2 130.49-11.65L130.49-11.65Q130.49-10.1 130.84-8.3 131.19-6.5 131.19-5.25L131.19-5.25Q131.19-3.75 130.49-2.5 129.79-1.25 128.69-0.53 127.59 0.2 126.29 0.2ZM162.19 0.25L162.19 0.25Q160.44 0.25 159.14-0.9 157.84-2.05 157.84-4.65L157.84-4.65Q157.84-4.9 157.84-5.15 157.84-5.4 157.89-5.65L157.89-5.65Q156.39-2.65 154.52-1.23 152.64 0.2 150.74 0.2L150.74 0.2Q148.99 0.2 147.44-1.03 145.89-2.25 144.94-4.65 143.99-7.05 143.99-10.45L143.99-10.45Q143.99-13.95 144.97-16.7 145.94-19.45 147.54-21.35 149.14-23.25 151.04-24.23 152.94-25.2 154.74-25.2L154.74-25.2Q156.74-25.2 158.34-23.98 159.94-22.75 160.54-20.1L160.54-20.1Q160.69-20.95 160.77-21.65 160.84-22.35 160.84-22.6L160.84-22.6Q160.89-23.95 162.22-24.6 163.54-25.25 165.14-25.25L165.14-25.25Q166.54-25.25 167.79-24.7 169.04-24.15 169.49-22.85L169.49-22.85 169.59-22.55Q168.99-21.2 168.39-19.3 167.79-17.4 167.29-15.33 166.79-13.25 166.49-11.28 166.19-9.3 166.19-7.8L166.19-7.8Q166.19-6.15 166.54-5.53 166.89-4.9 167.39-4.9L167.39-4.9Q168.24-4.9 168.94-6.1L168.94-6.1 169.34-5.9Q169.34-4.2 168.24-2.8 167.14-1.4 165.49-0.58 163.84 0.25 162.19 0.25ZM154.04-6.1L154.04-6.1Q155.34-6.1 156.92-8.43 158.49-10.75 159.64-15.1L159.64-15.1Q159.74-15.55 159.84-15.98 159.94-16.4 159.99-16.8L159.99-16.8Q159.19-18.65 158.31-19.43 157.44-20.2 156.59-20.2L156.59-20.2Q155.34-20.2 154.27-18.88 153.19-17.55 152.52-15.55 151.84-13.55 151.84-11.55L151.84-11.55Q151.84-8.8 152.47-7.45 153.09-6.1 154.04-6.1ZM178.54-20.45L178.54-20.45Q177.44-20.45 176.51-20.78 175.59-21.1 175.19-21.85L175.19-21.85 175.19-22.9Q175.19-27.95 175.56-30.58 175.94-33.2 176.44-34.25L176.44-34.25Q177.04-35.55 178.14-36 179.24-36.45 180.49-36.45L180.49-36.45Q182.09-36.45 183.61-35.85 185.14-35.25 185.79-33.9L185.79-33.9Q184.99-33.25 184.26-31.7 183.54-30.15 182.96-28.23 182.39-26.3 182.01-24.4 181.64-22.5 181.49-21.05L181.49-21.05Q180.89-20.75 180.11-20.6 179.34-20.45 178.54-20.45ZM196.28 0.45L196.28 0.45Q193.19 0.45 191.13-0.4 189.09-1.25 188.09-2.58 187.09-3.9 187.09-5.25L187.09-5.25Q187.09-7.15 188.78-8.63 190.48-10.1 193.38-10.1L193.38-10.1Q193.38-7.55 194.03-6.03 194.69-4.5 195.71-3.85 196.73-3.2 197.69-3.2L197.69-3.2Q198.84-3.2 199.61-3.88 200.38-4.55 200.38-5.55L200.38-5.55Q200.38-6.95 198.94-8 197.48-9.05 195.19-10.35L195.19-10.35Q194.03-11.05 192.69-11.98 191.34-12.9 190.38-14.23 189.44-15.55 189.44-17.4L189.44-17.4Q189.44-19.35 190.56-20.85 191.69-22.35 193.53-23.38 195.38-24.4 197.53-24.93 199.69-25.45 201.73-25.45L201.73-25.45Q205.59-25.45 207.53-23.9 209.49-22.35 209.49-20.6L209.49-20.6Q209.49-19.1 207.99-17.9 206.49-16.7 203.38-16.7L203.38-16.7Q203.44-19.25 202.34-20.43 201.23-21.6 199.98-21.6L199.98-21.6Q199.09-21.6 198.48-21.05 197.88-20.5 197.88-19.45L197.88-19.45Q197.88-18.25 198.66-17.38 199.44-16.5 200.61-15.83 201.78-15.15 203.03-14.55L203.03-14.55Q204.73-13.75 206.24-12.85 207.74-11.95 208.69-10.8 209.63-9.65 209.63-8L209.63-8Q209.63-5.75 207.81-3.83 205.99-1.9 202.94-0.73 199.88 0.45 196.28 0.45Z" opacity="1" transform="matrix(1,0,0,1,0,0)" fill="#009b7d" class="undefined-tk-0"></path></svg></g><g><svg xmlns="http://www.w3.org/2000/svg" xml:space="preserve" viewBox="6.891 1.1219999999999999 85.824 96.95" x="222.0149" y="0" height="53.208739" width="47.102494233481174" class="icon-dxe-0" data-fill-palette-color="accent" id="dxe-0"></svg></g><g transform="matrix(1,0,0,1,283.2322942334812,8.104369500000002)"><svg width="266.8500000000001" viewBox="2.55 -36.5 266.83 36.85" height="36.85" data-palette-color="#009b7d"><path d="M13.35 0.35L13.35 0.35Q8.8 0.35 5.9-1.35 3-3.05 3-6.9L3-6.9Q3-7.3 3.03-7.63 3.05-7.95 3.1-8.15L3.1-8.15Q3.3-9.55 3.95-11.6 4.6-13.65 5.45-15.98 6.3-18.3 7.1-20.55 7.9-22.8 8.45-24.68 9-26.55 9-27.7L9-27.7Q9-29 8.15-29L8.15-29Q7.2-29 5.8-27.58 4.4-26.15 2.85-23.6L2.85-23.6 2.55-23.75Q2.55-27.05 3.85-29.45 5.15-31.85 7.3-33.43 9.45-35 12.1-35.75 14.75-36.5 17.45-36.5L17.45-36.5Q20.8-36.5 23.75-35.43 26.7-34.35 28.58-32.35 30.45-30.35 30.45-27.45L30.45-27.45Q30.45-22.25 24.1-19.35L24.1-19.35Q27.85-18.5 29.6-16.5 31.35-14.5 31.35-12.05L31.35-12.05Q31.35-9.9 30.08-7.73 28.8-5.55 26.45-3.73 24.1-1.9 20.78-0.78 17.45 0.35 13.35 0.35ZM15.3-20.85L15.3-20.85Q17.6-20.8 19.33-21.58 21.05-22.35 22.03-23.58 23-24.8 23-26.1L23-26.1Q23-27.8 21.2-29.13 19.4-30.45 15.55-30.45L15.55-30.45Q15.75-29.5 15.83-28.55 15.9-27.6 15.9-26.7L15.9-26.7Q15.9-25.25 15.73-23.8 15.55-22.35 15.3-20.85ZM14.75-5.75L14.75-5.75Q16.9-5.75 18.55-6.63 20.2-7.5 21.15-8.88 22.1-10.25 22.1-11.7L22.1-11.7Q22.1-13.7 20.2-15.4 18.3-17.1 14.25-17.5L14.25-17.5Q14.05-15.95 13.43-14.2 12.8-12.45 12.25-10.85 11.7-9.25 11.7-8.05L11.7-8.05Q11.7-7 12.35-6.38 13-5.75 14.75-5.75ZM45.3 0.35L45.3 0.35Q41.55 0.35 39.1-1.15 36.65-2.65 35.47-5.13 34.3-7.6 34.3-10.4L34.3-10.4Q34.3-13.05 35.27-15.7 36.25-18.35 38.12-20.53 40-22.7 42.7-24.03 45.4-25.35 48.9-25.35L48.9-25.35Q52.65-25.35 55.07-23.83 57.5-22.3 58.67-19.8 59.85-17.3 59.85-14.45L59.85-14.45Q59.85-11.85 58.9-9.22 57.95-6.6 56.07-4.42 54.2-2.25 51.5-0.95 48.8 0.35 45.3 0.35ZM46.65-3.9L46.65-3.9Q48-3.9 48.9-5.3 49.8-6.7 50.25-8.88 50.7-11.05 50.7-13.3L50.7-13.3Q50.7-15.3 50.32-17.07 49.95-18.85 49.2-19.98 48.45-21.1 47.25-21.1L47.25-21.1Q45.95-21.1 45.02-19.7 44.1-18.3 43.65-16.15 43.2-14 43.2-11.7L43.2-11.7Q43.2-9.7 43.57-7.93 43.95-6.15 44.7-5.03 45.45-3.9 46.65-3.9ZM73.65 0.35L73.65 0.35Q69.9 0.35 67.45-1.15 65-2.65 63.82-5.13 62.65-7.6 62.65-10.4L62.65-10.4Q62.65-13.05 63.62-15.7 64.59-18.35 66.47-20.53 68.34-22.7 71.05-24.03 73.75-25.35 77.25-25.35L77.25-25.35Q81-25.35 83.42-23.83 85.84-22.3 87.02-19.8 88.2-17.3 88.2-14.45L88.2-14.45Q88.2-11.85 87.25-9.22 86.3-6.6 84.42-4.42 82.55-2.25 79.84-0.95 77.15 0.35 73.65 0.35ZM75-3.9L75-3.9Q76.34-3.9 77.25-5.3 78.15-6.7 78.59-8.88 79.05-11.05 79.05-13.3L79.05-13.3Q79.05-15.3 78.67-17.07 78.3-18.85 77.55-19.98 76.8-21.1 75.59-21.1L75.59-21.1Q74.3-21.1 73.37-19.7 72.45-18.3 72-16.15 71.55-14 71.55-11.7L71.55-11.7Q71.55-9.7 71.92-7.93 72.3-6.15 73.05-5.03 73.8-3.9 75-3.9ZM109.59 0.25L109.59 0.25Q107.94 0.25 106.49-0.53 105.04-1.3 104.14-2.8 103.24-4.3 103.24-6.4L103.24-6.4Q103.24-8.55 104.29-11.25L104.29-11.25Q105.09-11.65 106.19-12.5 107.29-13.35 108.14-14.43 108.99-15.5 108.99-16.55L108.99-16.55Q108.99-17.5 108.27-18.05 107.54-18.6 106.49-18.6L106.49-18.6Q105.19-18.6 104.04-17.8 102.89-17 102.02-15.73 101.14-14.45 100.67-12.98 100.19-11.5 100.19-10.15L100.19-10.15Q100.19-8.85 100.52-7.73 100.84-6.6 100.84-5.15L100.84-5.15Q100.84-2.9 99.64-1.35 98.44 0.2 96.09 0.2L96.09 0.2Q93.94 0.2 92.64-1.25 91.34-2.7 91.34-5.2L91.34-5.2Q91.34-6.5 91.67-8.65 91.99-10.8 92.49-13.4 92.99-16 93.47-18.78 93.94-21.55 94.27-24.13 94.59-26.7 94.59-28.75L94.59-28.75Q94.59-29.85 94.47-30.78 94.34-31.7 93.94-32.25L93.94-32.25 93.94-32.55Q95.04-33.8 96.34-34.4 97.64-35 98.89-35L98.89-35Q100.79-35 102.14-33.65 103.49-32.3 103.49-29.65L103.49-29.65Q103.49-28.25 103.12-26.25 102.74-24.25 102.22-22.05 101.69-19.85 101.14-17.85L101.14-17.85Q102.24-19.45 103.64-21.15 105.04-22.85 106.79-24.03 108.54-25.2 110.74-25.2L110.74-25.2Q113.29-25.2 114.74-23.58 116.19-21.95 116.19-19.7L116.19-19.7Q116.19-17.45 114.57-14.9 112.94-12.35 109.14-10.6L109.14-10.6Q109.79-9.15 110.94-8 112.09-6.85 113.47-6.23 114.84-5.6 116.04-5.6L116.04-5.6Q116.64-5.6 117.09-5.8L117.09-5.8 117.39-5.5Q116.14-2.6 113.97-1.18 111.79 0.25 109.59 0.25ZM132.24 0.2L132.24 0.2Q130.44 0.2 129.04-1.38 127.64-2.95 127.64-6.3L127.64-6.3Q127.64-8.65 128.26-11 128.89-13.35 129.54-15.3L129.54-15.3Q130.54-18.5 131.29-21.2 132.04-23.9 132.04-26.35L132.04-26.35Q132.04-28.05 131.66-28.7 131.29-29.35 130.69-29.35L130.69-29.35Q130.04-29.35 129.26-28.65 128.49-27.95 127.74-26.5L127.74-26.5 127.39-26.6Q127.49-29.5 128.64-31.6 129.79-33.7 131.54-34.85 133.29-36 135.14-36L135.14-36Q137.24-36 138.74-34.33 140.24-32.65 140.24-28.55L140.24-28.55Q140.24-26.4 139.81-24.05 139.39-21.7 138.84-19.35L138.84-19.35Q140.54-20.05 142.44-20.35 144.34-20.65 146.49-20.65L146.49-20.65 147.79-20.65Q148.44-23.15 148.91-25.58 149.39-28 149.39-30.1L149.39-30.1Q149.39-30.85 149.31-31.5 149.24-32.15 149.14-32.75L149.14-32.75 149.14-33.15Q149.89-34.5 151.31-35.3 152.74-36.1 154.19-36.1L154.19-36.1Q155.84-36.1 157.09-35.02 158.34-33.95 158.34-31.6L158.34-31.6Q158.34-29.85 157.66-27.1 156.99-24.35 156.14-21.45L156.14-21.45Q155.14-17.9 154.31-14.58 153.49-11.25 153.49-8.95L153.49-8.95Q153.49-7.4 153.99-6.5 154.49-5.6 155.59-5.6L155.59-5.6Q157.09-5.6 157.84-7.05L157.84-7.05 158.14-6.9Q158.09-4.8 156.99-3.2 155.89-1.6 154.26-0.7 152.64 0.2 150.94 0.2L150.94 0.2Q149.44 0.2 148.11-0.58 146.79-1.35 145.96-3 145.14-4.65 145.14-7.3L145.14-7.3Q145.14-9.05 145.51-11.13 145.89-13.2 146.39-15.35L146.39-15.35Q144.09-15.5 141.89-15.5L141.89-15.5Q140.79-15.5 139.79-15.45 138.79-15.4 137.89-15.3L137.89-15.3Q137.44-13.3 137.11-11.38 136.79-9.45 136.79-7.65L136.79-7.65Q136.79-6.65 136.91-5.68 137.04-4.7 137.34-3.8L137.34-3.8Q136.54-1.85 135.11-0.83 133.69 0.2 132.24 0.2ZM178.79 0.25L178.79 0.25Q177.03 0.25 175.74-0.9 174.44-2.05 174.44-4.65L174.44-4.65Q174.44-4.9 174.44-5.15 174.44-5.4 174.49-5.65L174.49-5.65Q172.99-2.65 171.11-1.23 169.24 0.2 167.34 0.2L167.34 0.2Q165.59 0.2 164.03-1.03 162.49-2.25 161.53-4.65 160.59-7.05 160.59-10.45L160.59-10.45Q160.59-13.95 161.56-16.7 162.53-19.45 164.14-21.35 165.74-23.25 167.64-24.23 169.53-25.2 171.34-25.2L171.34-25.2Q173.34-25.2 174.94-23.98 176.53-22.75 177.14-20.1L177.14-20.1Q177.28-20.95 177.36-21.65 177.44-22.35 177.44-22.6L177.44-22.6Q177.49-23.95 178.81-24.6 180.14-25.25 181.74-25.25L181.74-25.25Q183.14-25.25 184.39-24.7 185.64-24.15 186.09-22.85L186.09-22.85 186.19-22.55Q185.59-21.2 184.99-19.3 184.39-17.4 183.89-15.33 183.39-13.25 183.09-11.28 182.79-9.3 182.79-7.8L182.79-7.8Q182.79-6.15 183.14-5.53 183.49-4.9 183.99-4.9L183.99-4.9Q184.84-4.9 185.54-6.1L185.54-6.1 185.94-5.9Q185.94-4.2 184.84-2.8 183.74-1.4 182.09-0.58 180.44 0.25 178.79 0.25ZM170.64-6.1L170.64-6.1Q171.94-6.1 173.51-8.43 175.09-10.75 176.24-15.1L176.24-15.1Q176.34-15.55 176.44-15.98 176.53-16.4 176.59-16.8L176.59-16.8Q175.78-18.65 174.91-19.43 174.03-20.2 173.19-20.2L173.19-20.2Q171.94-20.2 170.86-18.88 169.78-17.55 169.11-15.55 168.44-13.55 168.44-11.55L168.44-11.55Q168.44-8.8 169.06-7.45 169.69-6.1 170.64-6.1ZM196.23 0.2L196.23 0.2Q193.33 0.2 191.63-1.33 189.93-2.85 189.93-6.05L189.93-6.05Q189.93-7.9 190.41-10 190.88-12.1 191.33-13.75L191.33-13.75Q191.78-15.35 192.06-16.55 192.33-17.75 192.33-18.4L192.33-18.4Q192.33-19.2 191.98-19.55 191.63-19.9 191.13-19.9L191.13-19.9Q189.93-19.9 189.13-18.75L189.13-18.75 188.93-18.95Q188.98-20.65 190.03-22.08 191.08-23.5 192.73-24.35 194.38-25.2 196.08-25.2L196.08-25.2Q197.98-25.2 199.33-24.08 200.68-22.95 200.58-20.55L200.58-20.55Q200.53-19.5 200.21-17.9 199.88-16.3 199.33-14.1L199.33-14.1Q198.98-12.7 198.61-10.93 198.23-9.15 198.23-7.7L198.23-7.7Q198.23-6.6 198.58-5.95 198.93-5.3 199.73-5.3L199.73-5.3Q200.78-5.3 202.06-6.48 203.33-7.65 204.28-10.33 205.23-13 205.38-17.45L205.38-17.45Q205.53-20.85 204.93-22.4L204.93-22.4 204.93-22.65Q205.38-23.35 206.31-24 207.23-24.65 208.38-25.08 209.53-25.5 210.53-25.5L210.53-25.5Q212.13-25.5 213.26-23.95 214.38-22.4 214.23-18.55L214.23-18.55Q214.13-14.85 212.91-11.85 211.68-8.85 209.73-6.6 207.78-4.35 205.46-2.85 203.13-1.35 200.73-0.58 198.33 0.2 196.23 0.2ZM227.28 0.35L227.28 0.35Q223.63 0.35 221.23-1.13 218.83-2.6 217.63-5.03 216.43-7.45 216.43-10.25L216.43-10.25Q216.43-12.9 217.46-15.58 218.48-18.25 220.46-20.45 222.43-22.65 225.26-24 228.08-25.35 231.63-25.35L231.63-25.35Q236.03-25.35 238.06-23.38 240.08-21.4 240.08-18.6L240.08-18.6Q240.08-16.2 238.81-14.18 237.53-12.15 235.43-10.93 233.33-9.7 230.83-9.7L230.83-9.7Q229.53-9.7 228.18-10.1 226.83-10.5 225.53-11.35L225.53-11.35Q225.78-8.25 227.33-6.85 228.88-5.45 231.03-5.45L231.03-5.45Q232.53-5.45 234.03-6.03 235.53-6.6 236.81-7.53 238.08-8.45 238.78-9.5L238.78-9.5 239.13-9.25Q239.13-6.65 238.06-4.83 236.98-3 235.23-1.85 233.48-0.7 231.41-0.18 229.33 0.35 227.28 0.35ZM228.43-13.15L228.43-13.15Q230.03-13.15 231.03-14.08 232.03-15 232.53-16.25 233.03-17.5 233.03-18.45L233.03-18.45Q233.03-19.6 232.38-20.38 231.73-21.15 230.58-21.15L230.58-21.15Q229.68-21.15 228.61-20.5 227.53-19.85 226.68-18.28 225.83-16.7 225.58-13.9L225.58-13.9Q227.18-13.15 228.43-13.15ZM248.43 0.15L248.43 0.15Q246.58 0.15 245.08-1.33 243.58-2.8 243.58-5.45L243.58-5.45Q243.58-6.75 243.93-8.4 244.28-10.05 244.7-11.75 245.13-13.45 245.48-14.95 245.83-16.45 245.83-17.4L245.83-17.4Q245.83-18.4 245.43-18.98 245.03-19.55 244.38-19.55L244.38-19.55Q243.53-19.55 242.53-18.55L242.53-18.55 242.23-18.75Q242.18-19.55 242.58-20.65 242.98-21.75 243.8-22.78 244.63-23.8 245.93-24.5 247.23-25.2 249.03-25.2L249.03-25.2Q251.68-25.2 252.95-23.68 254.23-22.15 254.23-19.95L254.23-19.95Q254.23-19.15 254.08-18.4L254.08-18.4Q255.13-19.95 256.68-21.53 258.23-23.1 260.1-24.15 261.98-25.2 263.98-25.2L263.98-25.2Q266.33-25.2 267.18-23.7 268.03-22.2 268.03-19.95L268.03-19.95Q268.03-17.85 267.58-15.45 267.13-13.05 266.68-10.83 266.23-8.6 266.23-7.1L266.23-7.1Q266.23-5.1 267.38-5.1L267.38-5.1Q267.98-5.1 268.43-5.48 268.88-5.85 269.03-6.2L269.03-6.2 269.38-6.05Q269.38-4.2 268.35-2.8 267.33-1.4 265.78-0.63 264.23 0.15 262.63 0.15L262.63 0.15Q260.68 0.15 259.18-1.2 257.68-2.55 257.68-5.6L257.68-5.6Q257.68-7.4 258.15-9.5 258.63-11.6 259.08-13.55 259.53-15.5 259.53-16.75L259.53-16.75Q259.53-17.5 259.25-17.93 258.98-18.35 258.28-18.35L258.28-18.35Q257.13-18.35 255.75-17.3 254.38-16.25 253.4-14.5 252.43-12.75 252.43-10.65L252.43-10.65Q252.43-9.3 252.75-8.05 253.08-6.8 253.08-5.35L253.08-5.35Q253.08-2.65 251.68-1.25 250.28 0.15 248.43 0.15Z" opacity="1" transform="matrix(1,0,0,1,0,0)" fill="#009b7d" class="undefined-tk-1"></path></svg></g></svg></g></svg></g></svg></g></svg></g></svg></g><defs></defs><mask id="56a80c91-38eb-48e9-a032-64f6dde09d20"><g id="SvgjsG7122"><svg viewBox="0 0 395.5199999999999 38.25813095585193" height="38.25813095585193" width="395.5199999999999"><g><svg viewBox="0 0 550.0822942334812 53.208739" height="38.25813095585193" width="395.5199999999999"><g><svg viewBox="0 0 550.0822942334812 53.208739" height="53.208739" width="550.0822942334812"><g id="SvgjsG7121"><svg viewBox="0 0 550.0822942334812 53.208739" height="53.208739" width="550.0822942334812" id="SvgjsSvg7120"><g><svg viewBox="0 0 550.0822942334812 53.208739" height="53.208739" width="550.0822942334812"><g><svg><g></g><g></g></svg></g><g><svg><g></g><g><svg></svg></g></svg></g><g id="SvgjsG7119"><svg viewBox="0 0 550.0822942334812 53.208739" height="53.208739" width="550.0822942334812"><g transform="matrix(1,0,0,1,0,8.154369499999998)"><svg width="207.9" viewBox="1.75 -36.45 207.88 36.900000000000006" height="36.900000000000006" data-palette-color="#009b7d"><path d="M39.4 0L39.4 0Q37.8 0 36.33-0.9 34.85-1.8 33.95-3.75 33.05-5.7 33.05-8.75L33.05-8.75Q33.05-11.25 33.65-14.38 34.25-17.5 35.23-20.65 36.2-23.8 37.35-26.35L37.35-26.35Q33.9-24.05 31.3-20 28.7-15.95 26.8-10.6L26.8-10.6Q27.2-9 27.45-7.6 27.7-6.2 27.7-5.05L27.7-5.05Q27.7-2.85 26.65-1.6 25.6-0.35 23-0.35L23-0.35Q20.7-0.35 19.63-1.38 18.55-2.4 18.55-4.25L18.55-4.25Q18.55-5.45 18.98-7 19.4-8.55 20.2-10.35L20.2-10.35Q19.3-13 18-16.32 16.7-19.65 14.35-23.6L14.35-23.6Q13.65-20.65 12.93-17.73 12.2-14.8 11.73-12.33 11.25-9.85 11.25-8.15L11.25-8.15Q11.25-5.4 12.75-5.4L12.75-5.4 12.85-5.3Q12.85-3.65 12.03-2.48 11.2-1.3 9.93-0.68 8.65-0.05 7.25-0.05L7.25-0.05Q5.9-0.05 4.63-0.7 3.35-1.35 2.55-2.73 1.75-4.1 1.75-6.25L1.75-6.25Q1.75-8.3 2.48-10.73 3.2-13.15 4.3-15.68 5.4-18.2 6.55-20.63 7.7-23.05 8.63-25.18 9.55-27.3 9.85-28.9L9.85-28.9Q8.85-29.6 7.7-29.6L7.7-29.6Q6.75-29.6 5.78-28.98 4.8-28.35 3.95-26.9L3.95-26.9 3.6-27.05Q3.65-29.6 4.7-31.73 5.75-33.85 7.48-35.13 9.2-36.4 11.25-36.4L11.25-36.4Q13.6-36.4 16.1-34.35 18.6-32.3 20.73-27.6 22.85-22.9 24.15-14.9L24.15-14.9Q26.05-21.05 28.25-25.2 30.45-29.35 32.77-31.8 35.1-34.25 37.38-35.33 39.65-36.4 41.7-36.4L41.7-36.4Q44.25-36.4 46.28-35.15 48.3-33.9 49.48-32 50.65-30.1 50.65-28.2L50.65-28.2Q49.4-28.55 48.18-28.7 46.95-28.85 45.8-28.85L45.8-28.85Q44.65-28.85 43.6-28.7L43.6-28.7Q43.15-26.4 42.65-23.58 42.15-20.75 41.78-17.9 41.4-15.05 41.4-12.65L41.4-12.65Q41.4-10.2 41.9-8.65 42.4-7.1 43.65-7.1L43.65-7.1Q44.45-7.1 45.28-7.8 46.1-8.5 46.5-9.95L46.5-9.95 46.85-9.8Q46.85-6.5 45.75-4.33 44.65-2.15 42.93-1.07 41.2 0 39.4 0ZM69.5 0.25L69.5 0.25Q67.75 0.25 66.45-0.9 65.15-2.05 65.15-4.65L65.15-4.65Q65.15-4.9 65.15-5.15 65.15-5.4 65.2-5.65L65.2-5.65Q63.7-2.65 61.82-1.23 59.95 0.2 58.05 0.2L58.05 0.2Q56.3 0.2 54.75-1.03 53.2-2.25 52.25-4.65 51.3-7.05 51.3-10.45L51.3-10.45Q51.3-13.95 52.27-16.7 53.25-19.45 54.85-21.35 56.45-23.25 58.35-24.23 60.25-25.2 62.05-25.2L62.05-25.2Q64.05-25.2 65.65-23.98 67.25-22.75 67.85-20.1L67.85-20.1Q68-20.95 68.07-21.65 68.15-22.35 68.15-22.6L68.15-22.6Q68.2-23.95 69.52-24.6 70.85-25.25 72.45-25.25L72.45-25.25Q73.85-25.25 75.1-24.7 76.35-24.15 76.8-22.85L76.8-22.85 76.9-22.55Q76.3-21.2 75.7-19.3 75.1-17.4 74.6-15.33 74.1-13.25 73.8-11.28 73.5-9.3 73.5-7.8L73.5-7.8Q73.5-6.15 73.85-5.53 74.2-4.9 74.7-4.9L74.7-4.9Q75.55-4.9 76.25-6.1L76.25-6.1 76.65-5.9Q76.65-4.2 75.55-2.8 74.45-1.4 72.8-0.58 71.15 0.25 69.5 0.25ZM61.35-6.1L61.35-6.1Q62.65-6.1 64.22-8.43 65.8-10.75 66.95-15.1L66.95-15.1Q67.05-15.55 67.15-15.98 67.25-16.4 67.3-16.8L67.3-16.8Q66.5-18.65 65.62-19.43 64.75-20.2 63.9-20.2L63.9-20.2Q62.65-20.2 61.57-18.88 60.5-17.55 59.82-15.55 59.15-13.55 59.15-11.55L59.15-11.55Q59.15-8.8 59.77-7.45 60.4-6.1 61.35-6.1ZM86.55 0.2L86.55 0.2Q83.95 0.2 82.32-1.33 80.7-2.85 80.7-6.05L80.7-6.05Q80.7-7.65 81.07-9.43 81.45-11.2 81.92-12.93 82.4-14.65 82.75-16.05 83.09-17.45 83.09-18.3L83.09-18.3Q83.09-19.15 82.75-19.53 82.4-19.9 81.9-19.9L81.9-19.9Q81.4-19.9 80.9-19.58 80.4-19.25 80.05-18.6L80.05-18.6 79.65-18.75Q79.75-20.8 80.8-22.25 81.84-23.7 83.42-24.45 85-25.2 86.59-25.2L86.59-25.2Q87.9-25.2 89.09-24.68 90.3-24.15 91.02-23.08 91.75-22 91.7-20.35L91.7-20.35Q91.65-19.25 91.3-17.65 90.95-16.05 90.47-14.23 90-12.4 89.65-10.7 89.3-9 89.3-7.7L89.3-7.7Q89.3-6.6 89.62-5.95 89.95-5.3 90.75-5.3L90.75-5.3Q91.59-5.3 93-6.2 94.4-7.1 95.8-8.8L95.8-8.8Q95.5-11.6 95.5-13.75L95.5-13.75Q95.5-19.25 97.12-21.7 98.75-24.15 101.2-24.15L101.2-24.15Q103-24.15 103.65-22.95 104.3-21.75 104.3-19.75L104.3-19.75Q104.3-16.8 103.3-14.2 102.3-11.6 100.95-10.05L100.95-10.05Q101.05-7.8 101.87-6.55 102.7-5.3 103.84-5.3L103.84-5.3Q105-5.3 106.22-6.6 107.45-7.9 108.34-10.6 109.25-13.3 109.4-17.45L109.4-17.45Q109.45-20.8 108.95-22.35L108.95-22.35 108.95-22.6Q109.65-23.75 111.17-24.58 112.7-25.4 114.25-25.4L114.25-25.4Q115.34-25.4 116.27-24.78 117.2-24.15 117.75-22.48 118.3-20.8 118.15-17.65L118.15-17.65Q118-13.25 116.7-9.93 115.4-6.6 113.37-4.35 111.34-2.1 109-0.95 106.65 0.2 104.34 0.2L104.34 0.2Q101.75 0.2 99.59-1.23 97.45-2.65 96.34-5.25L96.34-5.25Q94.09-2.9 91.72-1.35 89.34 0.2 86.55 0.2ZM126.29 0.2L126.29 0.2Q124.49 0.2 123.09-1.28 121.69-2.75 121.69-5.45L121.69-5.45Q121.69-6.75 121.99-8.4 122.29-10.05 122.69-11.78 123.09-13.5 123.39-15.03 123.69-16.55 123.69-17.55L123.69-17.55Q123.69-18.6 123.32-19.23 122.94-19.85 122.34-19.85L122.34-19.85Q121.39-19.85 120.39-18.55L120.39-18.55 120.09-18.75Q120.04-19.55 120.44-20.65 120.84-21.75 121.69-22.78 122.54-23.8 123.87-24.5 125.19-25.2 126.99-25.2L126.99-25.2Q129.64-25.2 130.84-23.68 132.04-22.15 132.04-20L132.04-20Q132.04-19.65 132.02-19.28 131.99-18.9 131.94-18.55L131.94-18.55Q133.74-21.8 135.72-23.53 137.69-25.25 139.39-25.25L139.39-25.25Q140.99-25.25 141.74-24 142.49-22.75 142.49-21L142.49-21Q142.49-19.4 141.87-17.75 141.24-16.1 140.02-15.03 138.79-13.95 137.04-14L137.04-14 136.84-14.1Q136.79-15.4 135.99-16.15 135.19-16.9 134.19-16.9L134.19-16.9Q132.84-16.9 131.67-15.55 130.49-14.2 130.49-11.65L130.49-11.65Q130.49-10.1 130.84-8.3 131.19-6.5 131.19-5.25L131.19-5.25Q131.19-3.75 130.49-2.5 129.79-1.25 128.69-0.53 127.59 0.2 126.29 0.2ZM162.19 0.25L162.19 0.25Q160.44 0.25 159.14-0.9 157.84-2.05 157.84-4.65L157.84-4.65Q157.84-4.9 157.84-5.15 157.84-5.4 157.89-5.65L157.89-5.65Q156.39-2.65 154.52-1.23 152.64 0.2 150.74 0.2L150.74 0.2Q148.99 0.2 147.44-1.03 145.89-2.25 144.94-4.65 143.99-7.05 143.99-10.45L143.99-10.45Q143.99-13.95 144.97-16.7 145.94-19.45 147.54-21.35 149.14-23.25 151.04-24.23 152.94-25.2 154.74-25.2L154.74-25.2Q156.74-25.2 158.34-23.98 159.94-22.75 160.54-20.1L160.54-20.1Q160.69-20.95 160.77-21.65 160.84-22.35 160.84-22.6L160.84-22.6Q160.89-23.95 162.22-24.6 163.54-25.25 165.14-25.25L165.14-25.25Q166.54-25.25 167.79-24.7 169.04-24.15 169.49-22.85L169.49-22.85 169.59-22.55Q168.99-21.2 168.39-19.3 167.79-17.4 167.29-15.33 166.79-13.25 166.49-11.28 166.19-9.3 166.19-7.8L166.19-7.8Q166.19-6.15 166.54-5.53 166.89-4.9 167.39-4.9L167.39-4.9Q168.24-4.9 168.94-6.1L168.94-6.1 169.34-5.9Q169.34-4.2 168.24-2.8 167.14-1.4 165.49-0.58 163.84 0.25 162.19 0.25ZM154.04-6.1L154.04-6.1Q155.34-6.1 156.92-8.43 158.49-10.75 159.64-15.1L159.64-15.1Q159.74-15.55 159.84-15.98 159.94-16.4 159.99-16.8L159.99-16.8Q159.19-18.65 158.31-19.43 157.44-20.2 156.59-20.2L156.59-20.2Q155.34-20.2 154.27-18.88 153.19-17.55 152.52-15.55 151.84-13.55 151.84-11.55L151.84-11.55Q151.84-8.8 152.47-7.45 153.09-6.1 154.04-6.1ZM178.54-20.45L178.54-20.45Q177.44-20.45 176.51-20.78 175.59-21.1 175.19-21.85L175.19-21.85 175.19-22.9Q175.19-27.95 175.56-30.58 175.94-33.2 176.44-34.25L176.44-34.25Q177.04-35.55 178.14-36 179.24-36.45 180.49-36.45L180.49-36.45Q182.09-36.45 183.61-35.85 185.14-35.25 185.79-33.9L185.79-33.9Q184.99-33.25 184.26-31.7 183.54-30.15 182.96-28.23 182.39-26.3 182.01-24.4 181.64-22.5 181.49-21.05L181.49-21.05Q180.89-20.75 180.11-20.6 179.34-20.45 178.54-20.45ZM196.28 0.45L196.28 0.45Q193.19 0.45 191.13-0.4 189.09-1.25 188.09-2.58 187.09-3.9 187.09-5.25L187.09-5.25Q187.09-7.15 188.78-8.63 190.48-10.1 193.38-10.1L193.38-10.1Q193.38-7.55 194.03-6.03 194.69-4.5 195.71-3.85 196.73-3.2 197.69-3.2L197.69-3.2Q198.84-3.2 199.61-3.88 200.38-4.55 200.38-5.55L200.38-5.55Q200.38-6.95 198.94-8 197.48-9.05 195.19-10.35L195.19-10.35Q194.03-11.05 192.69-11.98 191.34-12.9 190.38-14.23 189.44-15.55 189.44-17.4L189.44-17.4Q189.44-19.35 190.56-20.85 191.69-22.35 193.53-23.38 195.38-24.4 197.53-24.93 199.69-25.45 201.73-25.45L201.73-25.45Q205.59-25.45 207.53-23.9 209.49-22.35 209.49-20.6L209.49-20.6Q209.49-19.1 207.99-17.9 206.49-16.7 203.38-16.7L203.38-16.7Q203.44-19.25 202.34-20.43 201.23-21.6 199.98-21.6L199.98-21.6Q199.09-21.6 198.48-21.05 197.88-20.5 197.88-19.45L197.88-19.45Q197.88-18.25 198.66-17.38 199.44-16.5 200.61-15.83 201.78-15.15 203.03-14.55L203.03-14.55Q204.73-13.75 206.24-12.85 207.74-11.95 208.69-10.8 209.63-9.65 209.63-8L209.63-8Q209.63-5.75 207.81-3.83 205.99-1.9 202.94-0.73 199.88 0.45 196.28 0.45Z" opacity="1" transform="matrix(1,0,0,1,0,0)" fill="black" class="undefined-tk-0"></path></svg></g><g><svg xmlns="http://www.w3.org/2000/svg" xml:space="preserve" viewBox="6.891 1.1219999999999999 85.824 96.95" x="222.0149" y="0" height="53.208739" width="47.102494233481174" class="icon-dxe-0" data-fill-palette-color="accent" id="SvgjsSvg7118"><path d="M64.008 72.381c4.002-3.149 12.23-11.582 15.089-21.179-6.511-8.01-33.912-42.187-40.238-50.08-0.647 7.491-7.229 23.255-18.649 28.524-5.247 2.56-10.477 4.156-12.467 4.721l39.077 47.32c4.415-1.424 13.138-6.127 17.188-9.306M90.405 75.352c-6.5 3.781-13.381 7.281-20.674 9.929-8.632 3.134-19.05 6.681-22.386 7.664v5.127l43.046-15.479zM6.891 35.865v14.223l38.812 47.857 0.033-15.043z" fill="white"></path><path d="M88.717 70.42c-5.018 3.936-11.386 7.921-18.278 11.363-6.521 3.266-20.879 7.668-23.093 8.339v1.144c3.686-1.09 13.036-3.898 21.237-7.013 9.104-3.457 22.12-11.628 22.12-11.628zM80.877 50.835l-0.114 0.403c-2.851 10.142-11.25 18.858-15.762 22.409-4.225 3.319-13.009 8.054-17.655 9.561v2.168c6.53-2.034 15.656-6.36 20.721-9.922 8.699-6.128 17.195-14.63 22.419-22.404l0.047 0.036C84.648 46.442 51.938 9.001 49.818 6.309c-0.719 1.357-1.368 2.265-2.422 2.887C58.228 22.704 75.994 44.843 80.613 50.51z" fill="white"></path><path d="M87.321 59.925s-11.588 12.1-18.328 16.846c-5.696 4.008-14.5 7.942-21.647 10.168v1.498c0.692-0.212 1.838-0.566 3.268-1.021 5.266-1.677 14.41-4.722 19.106-7.072 9.305-4.648 17.623-10.274 22.834-15.386l0.161-0.16z" fill="white"></path></svg></g><g transform="matrix(1,0,0,1,283.2322942334812,8.104369500000002)"><svg width="266.8500000000001" viewBox="2.55 -36.5 266.83 36.85" height="36.85" data-palette-color="#009b7d"><path d="M13.35 0.35L13.35 0.35Q8.8 0.35 5.9-1.35 3-3.05 3-6.9L3-6.9Q3-7.3 3.03-7.63 3.05-7.95 3.1-8.15L3.1-8.15Q3.3-9.55 3.95-11.6 4.6-13.65 5.45-15.98 6.3-18.3 7.1-20.55 7.9-22.8 8.45-24.68 9-26.55 9-27.7L9-27.7Q9-29 8.15-29L8.15-29Q7.2-29 5.8-27.58 4.4-26.15 2.85-23.6L2.85-23.6 2.55-23.75Q2.55-27.05 3.85-29.45 5.15-31.85 7.3-33.43 9.45-35 12.1-35.75 14.75-36.5 17.45-36.5L17.45-36.5Q20.8-36.5 23.75-35.43 26.7-34.35 28.58-32.35 30.45-30.35 30.45-27.45L30.45-27.45Q30.45-22.25 24.1-19.35L24.1-19.35Q27.85-18.5 29.6-16.5 31.35-14.5 31.35-12.05L31.35-12.05Q31.35-9.9 30.08-7.73 28.8-5.55 26.45-3.73 24.1-1.9 20.78-0.78 17.45 0.35 13.35 0.35ZM15.3-20.85L15.3-20.85Q17.6-20.8 19.33-21.58 21.05-22.35 22.03-23.58 23-24.8 23-26.1L23-26.1Q23-27.8 21.2-29.13 19.4-30.45 15.55-30.45L15.55-30.45Q15.75-29.5 15.83-28.55 15.9-27.6 15.9-26.7L15.9-26.7Q15.9-25.25 15.73-23.8 15.55-22.35 15.3-20.85ZM14.75-5.75L14.75-5.75Q16.9-5.75 18.55-6.63 20.2-7.5 21.15-8.88 22.1-10.25 22.1-11.7L22.1-11.7Q22.1-13.7 20.2-15.4 18.3-17.1 14.25-17.5L14.25-17.5Q14.05-15.95 13.43-14.2 12.8-12.45 12.25-10.85 11.7-9.25 11.7-8.05L11.7-8.05Q11.7-7 12.35-6.38 13-5.75 14.75-5.75ZM45.3 0.35L45.3 0.35Q41.55 0.35 39.1-1.15 36.65-2.65 35.47-5.13 34.3-7.6 34.3-10.4L34.3-10.4Q34.3-13.05 35.27-15.7 36.25-18.35 38.12-20.53 40-22.7 42.7-24.03 45.4-25.35 48.9-25.35L48.9-25.35Q52.65-25.35 55.07-23.83 57.5-22.3 58.67-19.8 59.85-17.3 59.85-14.45L59.85-14.45Q59.85-11.85 58.9-9.22 57.95-6.6 56.07-4.42 54.2-2.25 51.5-0.95 48.8 0.35 45.3 0.35ZM46.65-3.9L46.65-3.9Q48-3.9 48.9-5.3 49.8-6.7 50.25-8.88 50.7-11.05 50.7-13.3L50.7-13.3Q50.7-15.3 50.32-17.07 49.95-18.85 49.2-19.98 48.45-21.1 47.25-21.1L47.25-21.1Q45.95-21.1 45.02-19.7 44.1-18.3 43.65-16.15 43.2-14 43.2-11.7L43.2-11.7Q43.2-9.7 43.57-7.93 43.95-6.15 44.7-5.03 45.45-3.9 46.65-3.9ZM73.65 0.35L73.65 0.35Q69.9 0.35 67.45-1.15 65-2.65 63.82-5.13 62.65-7.6 62.65-10.4L62.65-10.4Q62.65-13.05 63.62-15.7 64.59-18.35 66.47-20.53 68.34-22.7 71.05-24.03 73.75-25.35 77.25-25.35L77.25-25.35Q81-25.35 83.42-23.83 85.84-22.3 87.02-19.8 88.2-17.3 88.2-14.45L88.2-14.45Q88.2-11.85 87.25-9.22 86.3-6.6 84.42-4.42 82.55-2.25 79.84-0.95 77.15 0.35 73.65 0.35ZM75-3.9L75-3.9Q76.34-3.9 77.25-5.3 78.15-6.7 78.59-8.88 79.05-11.05 79.05-13.3L79.05-13.3Q79.05-15.3 78.67-17.07 78.3-18.85 77.55-19.98 76.8-21.1 75.59-21.1L75.59-21.1Q74.3-21.1 73.37-19.7 72.45-18.3 72-16.15 71.55-14 71.55-11.7L71.55-11.7Q71.55-9.7 71.92-7.93 72.3-6.15 73.05-5.03 73.8-3.9 75-3.9ZM109.59 0.25L109.59 0.25Q107.94 0.25 106.49-0.53 105.04-1.3 104.14-2.8 103.24-4.3 103.24-6.4L103.24-6.4Q103.24-8.55 104.29-11.25L104.29-11.25Q105.09-11.65 106.19-12.5 107.29-13.35 108.14-14.43 108.99-15.5 108.99-16.55L108.99-16.55Q108.99-17.5 108.27-18.05 107.54-18.6 106.49-18.6L106.49-18.6Q105.19-18.6 104.04-17.8 102.89-17 102.02-15.73 101.14-14.45 100.67-12.98 100.19-11.5 100.19-10.15L100.19-10.15Q100.19-8.85 100.52-7.73 100.84-6.6 100.84-5.15L100.84-5.15Q100.84-2.9 99.64-1.35 98.44 0.2 96.09 0.2L96.09 0.2Q93.94 0.2 92.64-1.25 91.34-2.7 91.34-5.2L91.34-5.2Q91.34-6.5 91.67-8.65 91.99-10.8 92.49-13.4 92.99-16 93.47-18.78 93.94-21.55 94.27-24.13 94.59-26.7 94.59-28.75L94.59-28.75Q94.59-29.85 94.47-30.78 94.34-31.7 93.94-32.25L93.94-32.25 93.94-32.55Q95.04-33.8 96.34-34.4 97.64-35 98.89-35L98.89-35Q100.79-35 102.14-33.65 103.49-32.3 103.49-29.65L103.49-29.65Q103.49-28.25 103.12-26.25 102.74-24.25 102.22-22.05 101.69-19.85 101.14-17.85L101.14-17.85Q102.24-19.45 103.64-21.15 105.04-22.85 106.79-24.03 108.54-25.2 110.74-25.2L110.74-25.2Q113.29-25.2 114.74-23.58 116.19-21.95 116.19-19.7L116.19-19.7Q116.19-17.45 114.57-14.9 112.94-12.35 109.14-10.6L109.14-10.6Q109.79-9.15 110.94-8 112.09-6.85 113.47-6.23 114.84-5.6 116.04-5.6L116.04-5.6Q116.64-5.6 117.09-5.8L117.09-5.8 117.39-5.5Q116.14-2.6 113.97-1.18 111.79 0.25 109.59 0.25ZM132.24 0.2L132.24 0.2Q130.44 0.2 129.04-1.38 127.64-2.95 127.64-6.3L127.64-6.3Q127.64-8.65 128.26-11 128.89-13.35 129.54-15.3L129.54-15.3Q130.54-18.5 131.29-21.2 132.04-23.9 132.04-26.35L132.04-26.35Q132.04-28.05 131.66-28.7 131.29-29.35 130.69-29.35L130.69-29.35Q130.04-29.35 129.26-28.65 128.49-27.95 127.74-26.5L127.74-26.5 127.39-26.6Q127.49-29.5 128.64-31.6 129.79-33.7 131.54-34.85 133.29-36 135.14-36L135.14-36Q137.24-36 138.74-34.33 140.24-32.65 140.24-28.55L140.24-28.55Q140.24-26.4 139.81-24.05 139.39-21.7 138.84-19.35L138.84-19.35Q140.54-20.05 142.44-20.35 144.34-20.65 146.49-20.65L146.49-20.65 147.79-20.65Q148.44-23.15 148.91-25.58 149.39-28 149.39-30.1L149.39-30.1Q149.39-30.85 149.31-31.5 149.24-32.15 149.14-32.75L149.14-32.75 149.14-33.15Q149.89-34.5 151.31-35.3 152.74-36.1 154.19-36.1L154.19-36.1Q155.84-36.1 157.09-35.02 158.34-33.95 158.34-31.6L158.34-31.6Q158.34-29.85 157.66-27.1 156.99-24.35 156.14-21.45L156.14-21.45Q155.14-17.9 154.31-14.58 153.49-11.25 153.49-8.95L153.49-8.95Q153.49-7.4 153.99-6.5 154.49-5.6 155.59-5.6L155.59-5.6Q157.09-5.6 157.84-7.05L157.84-7.05 158.14-6.9Q158.09-4.8 156.99-3.2 155.89-1.6 154.26-0.7 152.64 0.2 150.94 0.2L150.94 0.2Q149.44 0.2 148.11-0.58 146.79-1.35 145.96-3 145.14-4.65 145.14-7.3L145.14-7.3Q145.14-9.05 145.51-11.13 145.89-13.2 146.39-15.35L146.39-15.35Q144.09-15.5 141.89-15.5L141.89-15.5Q140.79-15.5 139.79-15.45 138.79-15.4 137.89-15.3L137.89-15.3Q137.44-13.3 137.11-11.38 136.79-9.45 136.79-7.65L136.79-7.65Q136.79-6.65 136.91-5.68 137.04-4.7 137.34-3.8L137.34-3.8Q136.54-1.85 135.11-0.83 133.69 0.2 132.24 0.2ZM178.79 0.25L178.79 0.25Q177.03 0.25 175.74-0.9 174.44-2.05 174.44-4.65L174.44-4.65Q174.44-4.9 174.44-5.15 174.44-5.4 174.49-5.65L174.49-5.65Q172.99-2.65 171.11-1.23 169.24 0.2 167.34 0.2L167.34 0.2Q165.59 0.2 164.03-1.03 162.49-2.25 161.53-4.65 160.59-7.05 160.59-10.45L160.59-10.45Q160.59-13.95 161.56-16.7 162.53-19.45 164.14-21.35 165.74-23.25 167.64-24.23 169.53-25.2 171.34-25.2L171.34-25.2Q173.34-25.2 174.94-23.98 176.53-22.75 177.14-20.1L177.14-20.1Q177.28-20.95 177.36-21.65 177.44-22.35 177.44-22.6L177.44-22.6Q177.49-23.95 178.81-24.6 180.14-25.25 181.74-25.25L181.74-25.25Q183.14-25.25 184.39-24.7 185.64-24.15 186.09-22.85L186.09-22.85 186.19-22.55Q185.59-21.2 184.99-19.3 184.39-17.4 183.89-15.33 183.39-13.25 183.09-11.28 182.79-9.3 182.79-7.8L182.79-7.8Q182.79-6.15 183.14-5.53 183.49-4.9 183.99-4.9L183.99-4.9Q184.84-4.9 185.54-6.1L185.54-6.1 185.94-5.9Q185.94-4.2 184.84-2.8 183.74-1.4 182.09-0.58 180.44 0.25 178.79 0.25ZM170.64-6.1L170.64-6.1Q171.94-6.1 173.51-8.43 175.09-10.75 176.24-15.1L176.24-15.1Q176.34-15.55 176.44-15.98 176.53-16.4 176.59-16.8L176.59-16.8Q175.78-18.65 174.91-19.43 174.03-20.2 173.19-20.2L173.19-20.2Q171.94-20.2 170.86-18.88 169.78-17.55 169.11-15.55 168.44-13.55 168.44-11.55L168.44-11.55Q168.44-8.8 169.06-7.45 169.69-6.1 170.64-6.1ZM196.23 0.2L196.23 0.2Q193.33 0.2 191.63-1.33 189.93-2.85 189.93-6.05L189.93-6.05Q189.93-7.9 190.41-10 190.88-12.1 191.33-13.75L191.33-13.75Q191.78-15.35 192.06-16.55 192.33-17.75 192.33-18.4L192.33-18.4Q192.33-19.2 191.98-19.55 191.63-19.9 191.13-19.9L191.13-19.9Q189.93-19.9 189.13-18.75L189.13-18.75 188.93-18.95Q188.98-20.65 190.03-22.08 191.08-23.5 192.73-24.35 194.38-25.2 196.08-25.2L196.08-25.2Q197.98-25.2 199.33-24.08 200.68-22.95 200.58-20.55L200.58-20.55Q200.53-19.5 200.21-17.9 199.88-16.3 199.33-14.1L199.33-14.1Q198.98-12.7 198.61-10.93 198.23-9.15 198.23-7.7L198.23-7.7Q198.23-6.6 198.58-5.95 198.93-5.3 199.73-5.3L199.73-5.3Q200.78-5.3 202.06-6.48 203.33-7.65 204.28-10.33 205.23-13 205.38-17.45L205.38-17.45Q205.53-20.85 204.93-22.4L204.93-22.4 204.93-22.65Q205.38-23.35 206.31-24 207.23-24.65 208.38-25.08 209.53-25.5 210.53-25.5L210.53-25.5Q212.13-25.5 213.26-23.95 214.38-22.4 214.23-18.55L214.23-18.55Q214.13-14.85 212.91-11.85 211.68-8.85 209.73-6.6 207.78-4.35 205.46-2.85 203.13-1.35 200.73-0.58 198.33 0.2 196.23 0.2ZM227.28 0.35L227.28 0.35Q223.63 0.35 221.23-1.13 218.83-2.6 217.63-5.03 216.43-7.45 216.43-10.25L216.43-10.25Q216.43-12.9 217.46-15.58 218.48-18.25 220.46-20.45 222.43-22.65 225.26-24 228.08-25.35 231.63-25.35L231.63-25.35Q236.03-25.35 238.06-23.38 240.08-21.4 240.08-18.6L240.08-18.6Q240.08-16.2 238.81-14.18 237.53-12.15 235.43-10.93 233.33-9.7 230.83-9.7L230.83-9.7Q229.53-9.7 228.18-10.1 226.83-10.5 225.53-11.35L225.53-11.35Q225.78-8.25 227.33-6.85 228.88-5.45 231.03-5.45L231.03-5.45Q232.53-5.45 234.03-6.03 235.53-6.6 236.81-7.53 238.08-8.45 238.78-9.5L238.78-9.5 239.13-9.25Q239.13-6.65 238.06-4.83 236.98-3 235.23-1.85 233.48-0.7 231.41-0.18 229.33 0.35 227.28 0.35ZM228.43-13.15L228.43-13.15Q230.03-13.15 231.03-14.08 232.03-15 232.53-16.25 233.03-17.5 233.03-18.45L233.03-18.45Q233.03-19.6 232.38-20.38 231.73-21.15 230.58-21.15L230.58-21.15Q229.68-21.15 228.61-20.5 227.53-19.85 226.68-18.28 225.83-16.7 225.58-13.9L225.58-13.9Q227.18-13.15 228.43-13.15ZM248.43 0.15L248.43 0.15Q246.58 0.15 245.08-1.33 243.58-2.8 243.58-5.45L243.58-5.45Q243.58-6.75 243.93-8.4 244.28-10.05 244.7-11.75 245.13-13.45 245.48-14.95 245.83-16.45 245.83-17.4L245.83-17.4Q245.83-18.4 245.43-18.98 245.03-19.55 244.38-19.55L244.38-19.55Q243.53-19.55 242.53-18.55L242.53-18.55 242.23-18.75Q242.18-19.55 242.58-20.65 242.98-21.75 243.8-22.78 244.63-23.8 245.93-24.5 247.23-25.2 249.03-25.2L249.03-25.2Q251.68-25.2 252.95-23.68 254.23-22.15 254.23-19.95L254.23-19.95Q254.23-19.15 254.08-18.4L254.08-18.4Q255.13-19.95 256.68-21.53 258.23-23.1 260.1-24.15 261.98-25.2 263.98-25.2L263.98-25.2Q266.33-25.2 267.18-23.7 268.03-22.2 268.03-19.95L268.03-19.95Q268.03-17.85 267.58-15.45 267.13-13.05 266.68-10.83 266.23-8.6 266.23-7.1L266.23-7.1Q266.23-5.1 267.38-5.1L267.38-5.1Q267.98-5.1 268.43-5.48 268.88-5.85 269.03-6.2L269.03-6.2 269.38-6.05Q269.38-4.2 268.35-2.8 267.33-1.4 265.78-0.63 264.23 0.15 262.63 0.15L262.63 0.15Q260.68 0.15 259.18-1.2 257.68-2.55 257.68-5.6L257.68-5.6Q257.68-7.4 258.15-9.5 258.63-11.6 259.08-13.55 259.53-15.5 259.53-16.75L259.53-16.75Q259.53-17.5 259.25-17.93 258.98-18.35 258.28-18.35L258.28-18.35Q257.13-18.35 255.75-17.3 254.38-16.25 253.4-14.5 252.43-12.75 252.43-10.65L252.43-10.65Q252.43-9.3 252.75-8.05 253.08-6.8 253.08-5.35L253.08-5.35Q253.08-2.65 251.68-1.25 250.28 0.15 248.43 0.15Z" opacity="1" transform="matrix(1,0,0,1,0,0)" fill="black" class="undefined-tk-1"></path></svg></g></svg></g></svg></g></svg></g></svg></g></svg></g><defs><mask></mask></defs></svg><rect width="395.5199999999999" height="38.25813095585193" fill="black" stroke="none" visibility="hidden"></rect></g></mask><linearGradient x1="0" x2="1" y1="0.578" y2="0.595" id="77a78fa1-450b-40a9-a210-177adc87f871"><stop stop-color="#dede50" offset="0"></stop><stop stop-color="#559c49" offset="1"></stop></linearGradient><rect width="395.5199999999999" height="38.25813095585193" fill="url(#77a78fa1-450b-40a9-a210-177adc87f871)" mask="url(#56a80c91-38eb-48e9-a032-64f6dde09d20)" data-fill-palette-color="accent"></rect></svg><rect width="395.5199999999999" height="38.25813095585193" fill="none" stroke="none" visibility="hidden"></rect></g></svg></g></svg>